{
	"asset":{
		"generator":"Khronos glTF Blender I/O v4.4.56",
		"version":"2.0"
	},
	"extensionsUsed":[
		"KHR_materials_clearcoat",
		"KHR_materials_transmission",
		"KHR_materials_specular",
		"KHR_materials_ior"
	],
	"scene":0,
	"scenes":[
		{
			"name":"Scene",
			"nodes":[
				0,
				1
			]
		}
	],
	"nodes":[
		{
			"mesh":0,
			"name":"Plane",
			"translation":[
				0,
				1.0685453414916992,
				0
			]
		},
		{
			"mesh":1,
			"name":"Icosphere",
			"scale":[
				0.722334086894989,
				0.722334086894989,
				0.722334086894989
			],
			"translation":[
				0,
				1.0685453414916992,
				0
			]
		}
	],
	"materials":[
		{
			"doubleSided":true,
			"name":"Material",
			"pbrMetallicRoughness":{
				"baseColorFactor":[
					0,
					0,
					0,
					1
				],
				"metallicFactor":0.6509090662002563,
				"roughnessFactor":0.46727272868156433
			}
		},
		{
			"doubleSided":true,
			"extensions":{
				"KHR_materials_clearcoat":{
					"clearcoatFactor":0.06545454263687134
				},
				"KHR_materials_transmission":{
					"transmissionFactor":1
				},
				"KHR_materials_specular":{
					"specularColorFactor":[
						1.4800000190734863,
						1.4800000190734863,
						1.4800000190734863
					]
				},
				"KHR_materials_ior":{
					"ior":1.4500000476837158
				}
			},
			"name":"Material.003",
			"pbrMetallicRoughness":{
				"baseColorFactor":[
					0.08402790874242783,
					0.17323121428489685,
					0.800481915473938,
					1
				],
				"metallicFactor":0
			}
		}
	],
	"meshes":[
		{
			"name":"Plane",
			"primitives":[
				{
					"attributes":{
						"POSITION":0,
						"NORMAL":1
					},
					"indices":2,
					"material":0
				}
			]
		},
		{
			"name":"Icosphere",
			"primitives":[
				{
					"attributes":{
						"POSITION":3,
						"NORMAL":4,
						"TEXCOORD_0":5
					},
					"indices":6,
					"material":1
				}
			]
		}
	],
	"accessors":[
		{
			"bufferView":0,
			"componentType":5126,
			"count":32564,
			"max":[
				1.300349473953247,
				1.307506799697876,
				1.3143709897994995
			],
			"min":[
				-1.3400722742080688,
				-1.24516761302948,
				-1.3419861793518066
			],
			"type":"VEC3"
		},
		{
			"bufferView":1,
			"componentType":5126,
			"count":32564,
			"type":"VEC3"
		},
		{
			"bufferView":2,
			"componentType":5123,
			"count":196608,
			"type":"SCALAR"
		},
		{
			"bufferView":3,
			"componentType":5126,
			"count":729,
			"max":[
				1,
				1,
				0.9999999403953552
			],
			"min":[
				-0.9999999403953552,
				-1,
				-0.9999999403953552
			],
			"type":"VEC3"
		},
		{
			"bufferView":4,
			"componentType":5126,
			"count":729,
			"type":"VEC3"
		},
		{
			"bufferView":5,
			"componentType":5126,
			"count":729,
			"type":"VEC2"
		},
		{
			"bufferView":6,
			"componentType":5123,
			"count":3840,
			"type":"SCALAR"
		}
	],
	"bufferViews":[
		{
			"buffer":0,
			"byteLength":390768,
			"byteOffset":0,
			"target":34962
		},
		{
			"buffer":0,
			"byteLength":390768,
			"byteOffset":390768,
			"target":34962
		},
		{
			"buffer":0,
			"byteLength":393216,
			"byteOffset":781536,
			"target":34963
		},
		{
			"buffer":0,
			"byteLength":8748,
			"byteOffset":1174752,
			"target":34962
		},
		{
			"buffer":0,
			"byteLength":8748,
			"byteOffset":1183500,
			"target":34962
		},
		{
			"buffer":0,
			"byteLength":5832,
			"byteOffset":1192248,
			"target":34962
		},
		{
			"buffer":0,
			"byteLength":7680,
			"byteOffset":1198080,
			"target":34963
		}
	],
	"buffers":[
		{
			"byteLength":1205760,
			"uri":"0_8.bin"
		}
	]
}
