{
	"asset":{
		"generator":"Khronos glTF Blender I/O v4.4.56",
		"version":"2.0"
	},
	"extensionsUsed":[
		"KHR_materials_anisotropy"
	],
	"scene":0,
	"scenes":[
		{
			"name":"Scene",
			"nodes":[
				0
			]
		}
	],
	"nodes":[
		{
			"mesh":0,
			"name":"Basketball1",
			"rotation":[
				0.70710688829422,
				0,
				0,
				0.7071066498756409
			]
		}
	],
	"materials":[
		{
			"doubleSided":true,
			"extensions":{
				"KHR_materials_anisotropy":{
					"anisotropyStrength":0.8999999761581421
				}
			},
			"name":"Stainless Steel",
			"normalTexture":{
				"index":0,
				"scale":0.10000000149011612,
				"texCoord":2
			},
			"pbrMetallicRoughness":{
				"baseColorTexture":{
					"index":1,
					"texCoord":2
				},
				"metallicRoughnessTexture":{
					"index":2,
					"texCoord":2
				}
			}
		}
	],
	"meshes":[
		{
			"name":"Basketball1",
			"primitives":[
				{
					"attributes":{
						"POSITION":0,
						"NORMAL":1,
						"TEXCOORD_0":2,
						"TEXCOORD_1":3,
						"TEXCOORD_2":4
					},
					"indices":5,
					"material":0
				}
			]
		}
	],
	"textures":[
		{
			"sampler":0,
			"source":0
		},
		{
			"sampler":0,
			"source":1
		},
		{
			"sampler":0,
			"source":2
		}
	],
	"images":[
		{
			"mimeType":"image/jpeg",
			"name":"Normal",
			"uri":"textures/Normal.jpg"
		},
		{
			"mimeType":"image/jpeg",
			"name":"Diffuse",
			"uri":"textures/Diffuse.jpg"
		},
		{
			"mimeType":"image/png",
			"name":"Roughness",
			"uri":"textures/Roughness.png"
		}
	],
	"accessors":[
		{
			"bufferView":0,
			"componentType":5126,
			"count":238538,
			"max":[
				0.7606419920921326,
				0.7689039707183838,
				0.7606340050697327
			],
			"min":[
				-0.7606419920921326,
				-0.7687270045280457,
				-0.7606340050697327
			],
			"type":"VEC3"
		},
		{
			"bufferView":1,
			"componentType":5126,
			"count":238538,
			"type":"VEC3"
		},
		{
			"bufferView":2,
			"componentType":5126,
			"count":238538,
			"type":"VEC2"
		},
		{
			"bufferView":3,
			"componentType":5126,
			"count":238538,
			"type":"VEC2"
		},
		{
			"bufferView":4,
			"componentType":5126,
			"count":238538,
			"type":"VEC2"
		},
		{
			"bufferView":5,
			"componentType":5125,
			"count":819024,
			"type":"SCALAR"
		}
	],
	"bufferViews":[
		{
			"buffer":0,
			"byteLength":2862456,
			"byteOffset":0,
			"target":34962
		},
		{
			"buffer":0,
			"byteLength":2862456,
			"byteOffset":2862456,
			"target":34962
		},
		{
			"buffer":0,
			"byteLength":1908304,
			"byteOffset":5724912,
			"target":34962
		},
		{
			"buffer":0,
			"byteLength":1908304,
			"byteOffset":7633216,
			"target":34962
		},
		{
			"buffer":0,
			"byteLength":1908304,
			"byteOffset":9541520,
			"target":34962
		},
		{
			"buffer":0,
			"byteLength":3276096,
			"byteOffset":11449824,
			"target":34963
		}
	],
	"samplers":[
		{
			"magFilter":9729,
			"minFilter":9987
		}
	],
	"buffers":[
		{
			"byteLength":14725920,
			"uri":"Untitled.bin"
		}
	]
}
