{
	"asset":{
		"generator":"Khronos glTF Blender I/O v4.4.56",
		"version":"2.0"
	},
	"scene":0,
	"scenes":[
		{
			"name":"Scene",
			"nodes":[
				0
			]
		}
	],
	"nodes":[
		{
			"mesh":0,
			"name":"Basketball1",
			"rotation":[
				0.7071068286895752,
				0,
				0,
				0.7071068286895752
			]
		}
	],
	"materials":[
		{
			"doubleSided":true,
			"name":"Procedural Stainless Steel"
		}
	],
	"meshes":[
		{
			"name":"Basketball1",
			"primitives":[
				{
					"attributes":{
						"POSITION":0,
						"NORMAL":1,
						"TEXCOORD_0":2,
						"TEXCOORD_1":3
					},
					"indices":4,
					"material":0
				}
			]
		}
	],
	"accessors":[
		{
			"bufferView":0,
			"componentType":5126,
			"count":235875,
			"max":[
				0.7606419920921326,
				0.7689039707183838,
				0.7606340050697327
			],
			"min":[
				-0.7606419920921326,
				-0.7687270045280457,
				-0.7606340050697327
			],
			"type":"VEC3"
		},
		{
			"bufferView":1,
			"componentType":5126,
			"count":235875,
			"type":"VEC3"
		},
		{
			"bufferView":2,
			"componentType":5126,
			"count":235875,
			"type":"VEC2"
		},
		{
			"bufferView":3,
			"componentType":5126,
			"count":235875,
			"type":"VEC2"
		},
		{
			"bufferView":4,
			"componentType":5125,
			"count":819024,
			"type":"SCALAR"
		}
	],
	"bufferViews":[
		{
			"buffer":0,
			"byteLength":2830500,
			"byteOffset":0,
			"target":34962
		},
		{
			"buffer":0,
			"byteLength":2830500,
			"byteOffset":2830500,
			"target":34962
		},
		{
			"buffer":0,
			"byteLength":1887000,
			"byteOffset":5661000,
			"target":34962
		},
		{
			"buffer":0,
			"byteLength":1887000,
			"byteOffset":7548000,
			"target":34962
		},
		{
			"buffer":0,
			"byteLength":3276096,
			"byteOffset":9435000,
			"target":34963
		}
	],
	"buffers":[
		{
			"byteLength":12711096,
			"uri":"airless.bin"
		}
	]
}
